<?xml version="1.0" encoding="UTF-8" standalone="no"?><svg xmlns="http://www.w3.org/2000/svg" xmlns:xlink="http://www.w3.org/1999/xlink" contentScriptType="application/ecmascript" contentStyleType="text/css" height="391px" preserveAspectRatio="none" style="width:772px;height:391px;" version="1.1" viewBox="0 0 772 391" width="772px" zoomAndPan="magnify"><defs><filter height="300%" id="f1caby7adwh7ew" width="300%" x="-1" y="-1"><feGaussianBlur result="blurOut" stdDeviation="2.0"/><feColorMatrix in="blurOut" result="blurOut2" type="matrix" values="0 0 0 0 0 0 0 0 0 0 0 0 0 0 0 0 0 0 .4 0"/><feOffset dx="4.0" dy="4.0" in="blurOut2" result="blurOut3"/><feBlend in="SourceGraphic" in2="blurOut3" mode="normal"/></filter></defs><g><!--MD5=[47de47a8b5f06cbc5e036fae0a9149b7]
class Iterable--><rect fill="#FEFECE" filter="url(#f1caby7adwh7ew)" height="48" id="Iterable" style="stroke: #A80036; stroke-width: 1.5;" width="78" x="266.5" y="8"/><ellipse cx="281.5" cy="24" fill="#B4A7E5" rx="11" ry="11" style="stroke: #A80036; stroke-width: 1.0;"/><path d="M277.4219,19.7656 L277.4219,17.6094 L284.8125,17.6094 L284.8125,19.7656 L282.3438,19.7656 L282.3438,27.8438 L284.8125,27.8438 L284.8125,30 L277.4219,30 L277.4219,27.8438 L279.8906,27.8438 L279.8906,19.7656 L277.4219,19.7656 Z "/><text fill="#000000" font-family="sans-serif" font-size="12" font-style="italic" lengthAdjust="spacingAndGlyphs" textLength="46" x="295.5" y="28.1543">Iterable</text><line style="stroke: #A80036; stroke-width: 1.5;" x1="267.5" x2="343.5" y1="40" y2="40"/><line style="stroke: #A80036; stroke-width: 1.5;" x1="267.5" x2="343.5" y1="48" y2="48"/><!--MD5=[c160724f8e3bb89ca8141a12554ac2e3]
class Collection--><rect fill="#FEFECE" filter="url(#f1caby7adwh7ew)" height="48" id="Collection" style="stroke: #A80036; stroke-width: 1.5;" width="89" x="261" y="116"/><ellipse cx="276" cy="132" fill="#B4A7E5" rx="11" ry="11" style="stroke: #A80036; stroke-width: 1.0;"/><path d="M271.9219,127.7656 L271.9219,125.6094 L279.3125,125.6094 L279.3125,127.7656 L276.8438,127.7656 L276.8438,135.8438 L279.3125,135.8438 L279.3125,138 L271.9219,138 L271.9219,135.8438 L274.3906,135.8438 L274.3906,127.7656 L271.9219,127.7656 Z "/><text fill="#000000" font-family="sans-serif" font-size="12" font-style="italic" lengthAdjust="spacingAndGlyphs" textLength="57" x="290" y="136.1543">Collection</text><line style="stroke: #A80036; stroke-width: 1.5;" x1="262" x2="349" y1="148" y2="148"/><line style="stroke: #A80036; stroke-width: 1.5;" x1="262" x2="349" y1="156" y2="156"/><!--MD5=[73145e46247802284b2f7aaef1fa1797]
class Set--><rect fill="#FEFECE" filter="url(#f1caby7adwh7ew)" height="48" id="Set" style="stroke: #A80036; stroke-width: 1.5;" width="52" x="209.5" y="224"/><ellipse cx="224.5" cy="240" fill="#B4A7E5" rx="11" ry="11" style="stroke: #A80036; stroke-width: 1.0;"/><path d="M220.4219,235.7656 L220.4219,233.6094 L227.8125,233.6094 L227.8125,235.7656 L225.3438,235.7656 L225.3438,243.8438 L227.8125,243.8438 L227.8125,246 L220.4219,246 L220.4219,243.8438 L222.8906,243.8438 L222.8906,235.7656 L220.4219,235.7656 Z "/><text fill="#000000" font-family="sans-serif" font-size="12" font-style="italic" lengthAdjust="spacingAndGlyphs" textLength="20" x="238.5" y="244.1543">Set</text><line style="stroke: #A80036; stroke-width: 1.5;" x1="210.5" x2="260.5" y1="256" y2="256"/><line style="stroke: #A80036; stroke-width: 1.5;" x1="210.5" x2="260.5" y1="264" y2="264"/><!--MD5=[081e18de64b05ec8ae686bcc1669da5e]
class HashSet--><rect fill="#FEFECE" filter="url(#f1caby7adwh7ew)" height="48" id="HashSet" style="stroke: #A80036; stroke-width: 1.5;" width="85" x="6" y="332"/><ellipse cx="21" cy="348" fill="#ADD1B2" rx="11" ry="11" style="stroke: #A80036; stroke-width: 1.0;"/><path d="M23.9688,353.6406 Q23.3906,353.9375 22.75,354.0781 Q22.1094,354.2344 21.4063,354.2344 Q18.9063,354.2344 17.5781,352.5938 Q16.2656,350.9375 16.2656,347.8125 Q16.2656,344.6875 17.5781,343.0313 Q18.9063,341.375 21.4063,341.375 Q22.1094,341.375 22.75,341.5313 Q23.4063,341.6875 23.9688,341.9844 L23.9688,344.7031 Q23.3438,344.125 22.75,343.8594 Q22.1563,343.5781 21.5313,343.5781 Q20.1875,343.5781 19.5,344.6563 Q18.8125,345.7188 18.8125,347.8125 Q18.8125,349.9063 19.5,350.9844 Q20.1875,352.0469 21.5313,352.0469 Q22.1563,352.0469 22.75,351.7813 Q23.3438,351.5 23.9688,350.9219 L23.9688,353.6406 Z "/><text fill="#000000" font-family="sans-serif" font-size="12" lengthAdjust="spacingAndGlyphs" textLength="53" x="35" y="352.1543">HashSet</text><line style="stroke: #A80036; stroke-width: 1.5;" x1="7" x2="90" y1="364" y2="364"/><line style="stroke: #A80036; stroke-width: 1.5;" x1="7" x2="90" y1="372" y2="372"/><!--MD5=[95f770ba5087db94578937ba4821175f]
class TreeSet--><rect fill="#FEFECE" filter="url(#f1caby7adwh7ew)" height="48" id="TreeSet" style="stroke: #A80036; stroke-width: 1.5;" width="81" x="126" y="332"/><ellipse cx="141" cy="348" fill="#ADD1B2" rx="11" ry="11" style="stroke: #A80036; stroke-width: 1.0;"/><path d="M143.9688,353.6406 Q143.3906,353.9375 142.75,354.0781 Q142.1094,354.2344 141.4063,354.2344 Q138.9063,354.2344 137.5781,352.5938 Q136.2656,350.9375 136.2656,347.8125 Q136.2656,344.6875 137.5781,343.0313 Q138.9063,341.375 141.4063,341.375 Q142.1094,341.375 142.75,341.5313 Q143.4063,341.6875 143.9688,341.9844 L143.9688,344.7031 Q143.3438,344.125 142.75,343.8594 Q142.1563,343.5781 141.5313,343.5781 Q140.1875,343.5781 139.5,344.6563 Q138.8125,345.7188 138.8125,347.8125 Q138.8125,349.9063 139.5,350.9844 Q140.1875,352.0469 141.5313,352.0469 Q142.1563,352.0469 142.75,351.7813 Q143.3438,351.5 143.9688,350.9219 L143.9688,353.6406 Z "/><text fill="#000000" font-family="sans-serif" font-size="12" lengthAdjust="spacingAndGlyphs" textLength="49" x="155" y="352.1543">TreeSet</text><line style="stroke: #A80036; stroke-width: 1.5;" x1="127" x2="206" y1="364" y2="364"/><line style="stroke: #A80036; stroke-width: 1.5;" x1="127" x2="206" y1="372" y2="372"/><!--MD5=[8c452fe909a389eeab67a697d1b8abd0]
class LinkedHashSet--><rect fill="#FEFECE" filter="url(#f1caby7adwh7ew)" height="48" id="LinkedHashSet" style="stroke: #A80036; stroke-width: 1.5;" width="125" x="242" y="332"/><ellipse cx="257" cy="348" fill="#ADD1B2" rx="11" ry="11" style="stroke: #A80036; stroke-width: 1.0;"/><path d="M259.9688,353.6406 Q259.3906,353.9375 258.75,354.0781 Q258.1094,354.2344 257.4063,354.2344 Q254.9063,354.2344 253.5781,352.5938 Q252.2656,350.9375 252.2656,347.8125 Q252.2656,344.6875 253.5781,343.0313 Q254.9063,341.375 257.4063,341.375 Q258.1094,341.375 258.75,341.5313 Q259.4063,341.6875 259.9688,341.9844 L259.9688,344.7031 Q259.3438,344.125 258.75,343.8594 Q258.1563,343.5781 257.5313,343.5781 Q256.1875,343.5781 255.5,344.6563 Q254.8125,345.7188 254.8125,347.8125 Q254.8125,349.9063 255.5,350.9844 Q256.1875,352.0469 257.5313,352.0469 Q258.1563,352.0469 258.75,351.7813 Q259.3438,351.5 259.9688,350.9219 L259.9688,353.6406 Z "/><text fill="#000000" font-family="sans-serif" font-size="12" lengthAdjust="spacingAndGlyphs" textLength="93" x="271" y="352.1543">LinkedHashSet</text><line style="stroke: #A80036; stroke-width: 1.5;" x1="243" x2="366" y1="364" y2="364"/><line style="stroke: #A80036; stroke-width: 1.5;" x1="243" x2="366" y1="372" y2="372"/><!--MD5=[3d4177ac58b4411586d067f34e84928f]
class List--><rect fill="#FEFECE" filter="url(#f1caby7adwh7ew)" height="48" id="List" style="stroke: #A80036; stroke-width: 1.5;" width="53" x="418" y="224"/><ellipse cx="433" cy="240" fill="#B4A7E5" rx="11" ry="11" style="stroke: #A80036; stroke-width: 1.0;"/><path d="M428.9219,235.7656 L428.9219,233.6094 L436.3125,233.6094 L436.3125,235.7656 L433.8438,235.7656 L433.8438,243.8438 L436.3125,243.8438 L436.3125,246 L428.9219,246 L428.9219,243.8438 L431.3906,243.8438 L431.3906,235.7656 L428.9219,235.7656 Z "/><text fill="#000000" font-family="sans-serif" font-size="12" font-style="italic" lengthAdjust="spacingAndGlyphs" textLength="21" x="447" y="244.1543">List</text><line style="stroke: #A80036; stroke-width: 1.5;" x1="419" x2="470" y1="256" y2="256"/><line style="stroke: #A80036; stroke-width: 1.5;" x1="419" x2="470" y1="264" y2="264"/><!--MD5=[ab8871ed637f40707b866ba6597734bc]
class ArrayList--><rect fill="#FEFECE" filter="url(#f1caby7adwh7ew)" height="48" id="ArrayList" style="stroke: #A80036; stroke-width: 1.5;" width="85" x="402" y="332"/><ellipse cx="417" cy="348" fill="#ADD1B2" rx="11" ry="11" style="stroke: #A80036; stroke-width: 1.0;"/><path d="M419.9688,353.6406 Q419.3906,353.9375 418.75,354.0781 Q418.1094,354.2344 417.4063,354.2344 Q414.9063,354.2344 413.5781,352.5938 Q412.2656,350.9375 412.2656,347.8125 Q412.2656,344.6875 413.5781,343.0313 Q414.9063,341.375 417.4063,341.375 Q418.1094,341.375 418.75,341.5313 Q419.4063,341.6875 419.9688,341.9844 L419.9688,344.7031 Q419.3438,344.125 418.75,343.8594 Q418.1563,343.5781 417.5313,343.5781 Q416.1875,343.5781 415.5,344.6563 Q414.8125,345.7188 414.8125,347.8125 Q414.8125,349.9063 415.5,350.9844 Q416.1875,352.0469 417.5313,352.0469 Q418.1563,352.0469 418.75,351.7813 Q419.3438,351.5 419.9688,350.9219 L419.9688,353.6406 Z "/><text fill="#000000" font-family="sans-serif" font-size="12" lengthAdjust="spacingAndGlyphs" textLength="53" x="431" y="352.1543">ArrayList</text><line style="stroke: #A80036; stroke-width: 1.5;" x1="403" x2="486" y1="364" y2="364"/><line style="stroke: #A80036; stroke-width: 1.5;" x1="403" x2="486" y1="372" y2="372"/><!--MD5=[a046d640d88ed63f622f54ae7bf961fb]
class LinkedList--><rect fill="#FEFECE" filter="url(#f1caby7adwh7ew)" height="48" id="LinkedList" style="stroke: #A80036; stroke-width: 1.5;" width="93" x="522" y="332"/><ellipse cx="537" cy="348" fill="#ADD1B2" rx="11" ry="11" style="stroke: #A80036; stroke-width: 1.0;"/><path d="M539.9688,353.6406 Q539.3906,353.9375 538.75,354.0781 Q538.1094,354.2344 537.4063,354.2344 Q534.9063,354.2344 533.5781,352.5938 Q532.2656,350.9375 532.2656,347.8125 Q532.2656,344.6875 533.5781,343.0313 Q534.9063,341.375 537.4063,341.375 Q538.1094,341.375 538.75,341.5313 Q539.4063,341.6875 539.9688,341.9844 L539.9688,344.7031 Q539.3438,344.125 538.75,343.8594 Q538.1563,343.5781 537.5313,343.5781 Q536.1875,343.5781 535.5,344.6563 Q534.8125,345.7188 534.8125,347.8125 Q534.8125,349.9063 535.5,350.9844 Q536.1875,352.0469 537.5313,352.0469 Q538.1563,352.0469 538.75,351.7813 Q539.3438,351.5 539.9688,350.9219 L539.9688,353.6406 Z "/><text fill="#000000" font-family="sans-serif" font-size="12" lengthAdjust="spacingAndGlyphs" textLength="61" x="551" y="352.1543">LinkedList</text><line style="stroke: #A80036; stroke-width: 1.5;" x1="523" x2="614" y1="364" y2="364"/><line style="stroke: #A80036; stroke-width: 1.5;" x1="523" x2="614" y1="372" y2="372"/><!--MD5=[4dfc6a72b8dd60daa1b635d583ff79da]
class Map--><rect fill="#FEFECE" filter="url(#f1caby7adwh7ew)" height="48" id="Map" style="stroke: #A80036; stroke-width: 1.5;" width="57" x="525" y="8"/><ellipse cx="540" cy="24" fill="#B4A7E5" rx="11" ry="11" style="stroke: #A80036; stroke-width: 1.0;"/><path d="M535.9219,19.7656 L535.9219,17.6094 L543.3125,17.6094 L543.3125,19.7656 L540.8438,19.7656 L540.8438,27.8438 L543.3125,27.8438 L543.3125,30 L535.9219,30 L535.9219,27.8438 L538.3906,27.8438 L538.3906,19.7656 L535.9219,19.7656 Z "/><text fill="#000000" font-family="sans-serif" font-size="12" font-style="italic" lengthAdjust="spacingAndGlyphs" textLength="25" x="554" y="28.1543">Map</text><line style="stroke: #A80036; stroke-width: 1.5;" x1="526" x2="581" y1="40" y2="40"/><line style="stroke: #A80036; stroke-width: 1.5;" x1="526" x2="581" y1="48" y2="48"/><!--MD5=[702f122c79729df12a8a52022932f992]
class HashMap--><rect fill="#FEFECE" filter="url(#f1caby7adwh7ew)" height="48" id="HashMap" style="stroke: #A80036; stroke-width: 1.5;" width="90" x="385.5" y="116"/><ellipse cx="400.5" cy="132" fill="#ADD1B2" rx="11" ry="11" style="stroke: #A80036; stroke-width: 1.0;"/><path d="M403.4688,137.6406 Q402.8906,137.9375 402.25,138.0781 Q401.6094,138.2344 400.9063,138.2344 Q398.4063,138.2344 397.0781,136.5938 Q395.7656,134.9375 395.7656,131.8125 Q395.7656,128.6875 397.0781,127.0313 Q398.4063,125.375 400.9063,125.375 Q401.6094,125.375 402.25,125.5313 Q402.9063,125.6875 403.4688,125.9844 L403.4688,128.7031 Q402.8438,128.125 402.25,127.8594 Q401.6563,127.5781 401.0313,127.5781 Q399.6875,127.5781 399,128.6563 Q398.3125,129.7188 398.3125,131.8125 Q398.3125,133.9063 399,134.9844 Q399.6875,136.0469 401.0313,136.0469 Q401.6563,136.0469 402.25,135.7813 Q402.8438,135.5 403.4688,134.9219 L403.4688,137.6406 Z "/><text fill="#000000" font-family="sans-serif" font-size="12" lengthAdjust="spacingAndGlyphs" textLength="58" x="414.5" y="136.1543">HashMap</text><line style="stroke: #A80036; stroke-width: 1.5;" x1="386.5" x2="474.5" y1="148" y2="148"/><line style="stroke: #A80036; stroke-width: 1.5;" x1="386.5" x2="474.5" y1="156" y2="156"/><!--MD5=[0edaf59d72467900525267fa96001854]
class TreeMap--><rect fill="#FEFECE" filter="url(#f1caby7adwh7ew)" height="48" id="TreeMap" style="stroke: #A80036; stroke-width: 1.5;" width="86" x="510.5" y="116"/><ellipse cx="525.5" cy="132" fill="#ADD1B2" rx="11" ry="11" style="stroke: #A80036; stroke-width: 1.0;"/><path d="M528.4688,137.6406 Q527.8906,137.9375 527.25,138.0781 Q526.6094,138.2344 525.9063,138.2344 Q523.4063,138.2344 522.0781,136.5938 Q520.7656,134.9375 520.7656,131.8125 Q520.7656,128.6875 522.0781,127.0313 Q523.4063,125.375 525.9063,125.375 Q526.6094,125.375 527.25,125.5313 Q527.9063,125.6875 528.4688,125.9844 L528.4688,128.7031 Q527.8438,128.125 527.25,127.8594 Q526.6563,127.5781 526.0313,127.5781 Q524.6875,127.5781 524,128.6563 Q523.3125,129.7188 523.3125,131.8125 Q523.3125,133.9063 524,134.9844 Q524.6875,136.0469 526.0313,136.0469 Q526.6563,136.0469 527.25,135.7813 Q527.8438,135.5 528.4688,134.9219 L528.4688,137.6406 Z "/><text fill="#000000" font-family="sans-serif" font-size="12" lengthAdjust="spacingAndGlyphs" textLength="54" x="539.5" y="136.1543">TreeMap</text><line style="stroke: #A80036; stroke-width: 1.5;" x1="511.5" x2="595.5" y1="148" y2="148"/><line style="stroke: #A80036; stroke-width: 1.5;" x1="511.5" x2="595.5" y1="156" y2="156"/><!--MD5=[e928cae19194615c2f3ae7408c14265d]
class LinkedHashMap--><rect fill="#FEFECE" filter="url(#f1caby7adwh7ew)" height="48" id="LinkedHashMap" style="stroke: #A80036; stroke-width: 1.5;" width="130" x="631.5" y="116"/><ellipse cx="646.5" cy="132" fill="#ADD1B2" rx="11" ry="11" style="stroke: #A80036; stroke-width: 1.0;"/><path d="M649.4688,137.6406 Q648.8906,137.9375 648.25,138.0781 Q647.6094,138.2344 646.9063,138.2344 Q644.4063,138.2344 643.0781,136.5938 Q641.7656,134.9375 641.7656,131.8125 Q641.7656,128.6875 643.0781,127.0313 Q644.4063,125.375 646.9063,125.375 Q647.6094,125.375 648.25,125.5313 Q648.9063,125.6875 649.4688,125.9844 L649.4688,128.7031 Q648.8438,128.125 648.25,127.8594 Q647.6563,127.5781 647.0313,127.5781 Q645.6875,127.5781 645,128.6563 Q644.3125,129.7188 644.3125,131.8125 Q644.3125,133.9063 645,134.9844 Q645.6875,136.0469 647.0313,136.0469 Q647.6563,136.0469 648.25,135.7813 Q648.8438,135.5 649.4688,134.9219 L649.4688,137.6406 Z "/><text fill="#000000" font-family="sans-serif" font-size="12" lengthAdjust="spacingAndGlyphs" textLength="98" x="660.5" y="136.1543">LinkedHashMap</text><line style="stroke: #A80036; stroke-width: 1.5;" x1="632.5" x2="760.5" y1="148" y2="148"/><line style="stroke: #A80036; stroke-width: 1.5;" x1="632.5" x2="760.5" y1="156" y2="156"/><!--MD5=[30609b773d1acd1d8ef4d49cf63668f8]
reverse link Iterable to Collection--><path d="M305.5,76.02 C305.5,89.58 305.5,104.04 305.5,115.68 " fill="none" id="Iterable&lt;-Collection" style="stroke: #A80036; stroke-width: 1.0;"/><polygon fill="none" points="298.5,76,305.5,56,312.5,76,298.5,76" style="stroke: #A80036; stroke-width: 1.0;"/><!--MD5=[1317568493796c4665b61a5c76c851cf]
reverse link Collection to Set--><path d="M279,181.13 C269.51,195.5 259.14,211.21 250.9,223.68 " fill="none" id="Collection&lt;-Set" style="stroke: #A80036; stroke-width: 1.0;"/><polygon fill="none" points="273.45,176.83,290.31,164,285.13,184.55,273.45,176.83" style="stroke: #A80036; stroke-width: 1.0;"/><!--MD5=[0159284274f96a472eb2618ad803aaca]
reverse link Collection to List--><path d="M351.58,176.14 C373.51,192.86 398.97,212.28 417.69,226.55 " fill="none" id="Collection&lt;-List" style="stroke: #A80036; stroke-width: 1.0;"/><polygon fill="none" points="347.32,181.69,335.66,164,355.81,170.56,347.32,181.69" style="stroke: #A80036; stroke-width: 1.0;"/><!--MD5=[368c5c2acb7de74fba431c7d8a072383]
reverse link Set to HashSet--><path d="M191.75,273.8 C160.83,291.33 119.65,314.67 89.38,331.83 " fill="none" id="Set&lt;-HashSet" style="stroke: #A80036; stroke-width: 1.0; stroke-dasharray: 7.0,7.0;"/><polygon fill="none" points="188.65,267.51,209.5,263.74,195.55,279.69,188.65,267.51" style="stroke: #A80036; stroke-width: 1.0;"/><!--MD5=[7fe174f6c364ac95385ed0f4df74ce3b]
reverse link Set to TreeSet--><path d="M209.38,289.13 C200.02,303.5 189.8,319.21 181.68,331.68 " fill="none" id="Set&lt;-TreeSet" style="stroke: #A80036; stroke-width: 1.0; stroke-dasharray: 7.0,7.0;"/><polygon fill="none" points="203.75,284.94,220.53,272,215.48,292.58,203.75,284.94" style="stroke: #A80036; stroke-width: 1.0;"/><!--MD5=[aecfb1885a514e1e2c4cd963792b44e7]
reverse link Set to LinkedHashSet--><path d="M261.62,289.13 C270.98,303.5 281.2,319.21 289.32,331.68 " fill="none" id="Set&lt;-LinkedHashSet" style="stroke: #A80036; stroke-width: 1.0; stroke-dasharray: 7.0,7.0;"/><polygon fill="none" points="255.52,292.58,250.47,272,267.25,284.94,255.52,292.58" style="stroke: #A80036; stroke-width: 1.0;"/><!--MD5=[de70471c1aeb5b441f3202b5f0dab243]
reverse link List to ArrayList--><path d="M444.5,292.02 C444.5,305.58 444.5,320.04 444.5,331.68 " fill="none" id="List&lt;-ArrayList" style="stroke: #A80036; stroke-width: 1.0; stroke-dasharray: 7.0,7.0;"/><polygon fill="none" points="437.5,292,444.5,272,451.5,292,437.5,292" style="stroke: #A80036; stroke-width: 1.0;"/><!--MD5=[fbe20c8416b252056ee73c1eb5bf9ec9]
reverse link List to LinkedList--><path d="M486.55,284.94 C504.72,300.48 525.45,318.2 541.52,331.93 " fill="none" id="List&lt;-LinkedList" style="stroke: #A80036; stroke-width: 1.0; stroke-dasharray: 7.0,7.0;"/><polygon fill="none" points="481.76,290.06,471.1,271.74,490.85,279.41,481.76,290.06" style="stroke: #A80036; stroke-width: 1.0;"/><!--MD5=[88ef7a2e478d2be745fa043201b4c4af]
reverse link Map to HashMap--><path d="M511.61,69.1 C493.74,84.5 473.4,102.03 457.56,115.68 " fill="none" id="Map&lt;-HashMap" style="stroke: #A80036; stroke-width: 1.0; stroke-dasharray: 7.0,7.0;"/><polygon fill="none" points="507.09,63.75,526.81,56,516.23,74.36,507.09,63.75" style="stroke: #A80036; stroke-width: 1.0;"/><!--MD5=[b1cc21a8b62fccdcea4e1aa9adf7b1cb]
reverse link Map to TreeMap--><path d="M553.5,76.02 C553.5,89.58 553.5,104.04 553.5,115.68 " fill="none" id="Map&lt;-TreeMap" style="stroke: #A80036; stroke-width: 1.0; stroke-dasharray: 7.0,7.0;"/><polygon fill="none" points="546.5,76,553.5,56,560.5,76,546.5,76" style="stroke: #A80036; stroke-width: 1.0;"/><!--MD5=[dc866e0777aa28bacedb24afa922ed43]
reverse link Map to LinkedHashMap--><path d="M598.17,66.11 C619.94,82.25 645.58,101.26 665.23,115.82 " fill="none" id="Map&lt;-LinkedHashMap" style="stroke: #A80036; stroke-width: 1.0; stroke-dasharray: 7.0,7.0;"/><polygon fill="none" points="593.99,71.73,582.09,54.2,602.33,60.48,593.99,71.73" style="stroke: #A80036; stroke-width: 1.0;"/><!--MD5=[76704d074132f4e167c10985ffbe32bc]
@startuml assets/collections
interface Iterable
interface Collection
interface Set
class HashSet
class TreeSet
class LinkedHashSet
interface List
Iterable <|- - Collection
Collection <|- - Set
Collection <|- - List
Set <|.. HashSet
Set <|.. TreeSet
Set <|.. LinkedHashSet
List <|.. ArrayList
List <|.. LinkedList
interface Map
class HashMap
class TreeMap
class LinkedHashMap
Map <|.. HashMap
Map <|.. TreeMap
Map <|.. LinkedHashMap
@enduml

PlantUML version 1.2020.02(Sun Mar 01 13:22:07 MSK 2020)
(GPL source distribution)
Java Runtime: OpenJDK Runtime Environment
JVM: OpenJDK 64-Bit Server VM
Java Version: 17.0.14+7-Debian-1deb11u1
Operating System: Linux
Default Encoding: UTF-8
Language: en
Country: US
--></g></svg>